<?xml version="1.0" encoding="iso-8859-1"?>
<!-- Generator: Adobe Illustrator 19.0.0, SVG Export Plug-In . SVG Version: 6.00 Build 0)  -->
<svg version="1.1" id="Layer_1" xmlns="http://www.w3.org/2000/svg" xmlns:xlink="http://www.w3.org/1999/xlink" x="0px" y="0px"
	 viewBox="0 0 511.984 511.984" style="enable-background:new 0 0 511.984 511.984;" xml:space="preserve">
<g>
	<g>
		<path d="M508.397,3.594c-2.531-2.531-6.953-3.586-12.562-3.586c-27.967,0-85.479,26.209-85.479,26.209L259.499,177.059
			l-7.53-7.539L18.78,402.701c0,0-0.016,0.016-0.031,0.031c-24.999,25-24.999,65.512,0,90.494
			c12.499,12.5,28.873,18.75,45.247,18.75c16.39,0,32.764-6.25,45.263-18.75c0.016-0.016,0.047-0.031,0.062-0.062L342.47,260.023
			l-7.546-7.539l150.851-150.843C485.774,101.641,523.554,18.749,508.397,3.594z M94.275,478.041
			c-0.062,0.062-0.109,0.125-0.172,0.188c-8.046,8-18.733,12.422-30.107,12.422c-11.39,0-22.108-4.453-30.17-12.5
			c-16.593-16.609-16.624-43.607-0.094-60.23c0.078-0.094,0.156-0.156,0.234-0.234l195.363-195.371l60.348,60.332L94.275,478.041z
			 M304.754,267.57l-60.348-60.333l7.562-7.555l60.331,60.341L304.754,267.57z M467.869,89.361L319.846,237.399l-45.247-45.255
			l148.023-148.03c5.125-2.234,15.42-6.609,27.326-10.968c20.951-7.688,33.404-10.43,40.279-11.359
			c-0.875,6.391-3.297,17.483-9.75,35.748C475.634,71.237,470.384,83.596,467.869,89.361z"/>
	</g>
</g>
<g>
	<g>
		<path d="M236.876,260.031c4.156-4.164,4.156-10.922,0-15.086c-4.172-4.163-10.922-4.163-15.093,0L41.372,425.357
			c-12.5,12.498-12.5,32.748,0,45.246c4.171,4.172,10.921,4.172,15.093,0c4.156-4.156,4.156-10.904,0-15.076
			c-4.172-4.172-4.172-10.922,0-15.078L236.876,260.031z"/>
	</g>
</g>
<g>
	<g>
		<path d="M432.98,79.018c-4.172-4.172-10.921-4.172-15.092-0.007c0,0.008,0,0.008,0,0.008L312.315,184.597l-0.016,0.008
			c-4.156,4.164-4.156,10.914,0,15.077c4.172,4.172,10.922,4.172,15.094,0v0.008L432.98,94.103c0,0,0,0,0-0.008
			C437.135,89.931,437.135,83.182,432.98,79.018z"/>
	</g>
</g>
<g>
</g>
<g>
</g>
<g>
</g>
<g>
</g>
<g>
</g>
<g>
</g>
<g>
</g>
<g>
</g>
<g>
</g>
<g>
</g>
<g>
</g>
<g>
</g>
<g>
</g>
<g>
</g>
<g>
</g>
</svg>
