<?xml version="1.0" encoding="iso-8859-1"?>
<!-- Generator: Adobe Illustrator 19.0.0, SVG Export Plug-In . SVG Version: 6.00 Build 0)  -->
<svg version="1.1" id="Layer_1" xmlns="http://www.w3.org/2000/svg" xmlns:xlink="http://www.w3.org/1999/xlink" x="0px" y="0px"
	 viewBox="0 0 511.998 511.998" style="enable-background:new 0 0 511.998 511.998;" xml:space="preserve">
<polygon style="fill:#965353;" points="232.992,208.501 65.498,366.495 21.999,414.493 10,454.491 31.999,489.989 59.998,500.989 
	95.497,494.989 146.495,446.491 306.497,283.998 "/>
<polygon style="fill:#E6E9ED;" points="475.318,15.336 416.665,36.664 265.991,184.658 327.324,245.999 485.99,75.896 
	505.989,15.336 "/>
<polygon style="fill:#FFCE54;" points="254.006,190.33 230.007,214.672 306.497,279.998 325.012,259.327 "/>
<path d="M508.411,3.603c-2.531-2.531-6.953-3.594-12.562-3.594c-27.967,0-85.48,26.218-85.48,26.218L259.507,177.064l-7.532-7.531
	L18.781,402.712c0,0-0.016,0.016-0.031,0.031c-25,24.999-25,65.514,0,90.496c12.5,12.5,28.874,18.75,45.248,18.75
	c16.39,0,32.764-6.25,45.264-18.75c0.016-0.016,0.047-0.031,0.062-0.062L342.479,260.03l-7.546-7.531l150.854-150.854
	C485.787,101.645,523.567,18.758,508.411,3.603z M94.278,478.053c-0.062,0.062-0.109,0.125-0.172,0.188
	c-8.047,8-18.734,12.421-30.108,12.421c-11.39,0-22.108-4.452-30.171-12.499c-16.593-16.608-16.624-43.607-0.094-60.231
	c0.078-0.094,0.156-0.156,0.234-0.234l195.368-195.384l60.349,60.342L94.278,478.053z M304.763,267.577l-60.35-60.326l7.562-7.562
	l60.334,60.342L304.763,267.577z M467.882,89.365L319.856,237.406l-45.249-45.248L422.634,44.117
	c5.124-2.234,15.42-6.609,27.326-10.969c20.953-7.687,33.405-10.421,40.279-11.359c-0.875,6.391-3.297,17.484-9.749,35.749
	C475.646,71.24,470.397,83.599,467.882,89.365z"/>
<path d="M221.789,244.953L41.374,425.367c-12.5,12.499-12.5,32.749,0,45.249c4.171,4.171,10.921,4.171,15.093,0
	c4.156-4.156,4.156-10.906,0-15.078c-4.172-4.172-4.172-10.922,0-15.078l180.415-180.43c4.156-4.156,4.156-10.906,0-15.078
	C232.71,240.781,225.96,240.781,221.789,244.953z"/>
<path d="M417.899,79.006c0,0.016,0,0.016,0,0.016L312.325,184.595c0,0-0.016,0-0.016,0.016c-4.156,4.172-4.156,10.922,0,15.078
	c4.172,4.172,10.921,4.172,15.093,0l0,0l105.59-105.59l0,0c4.155-4.156,4.155-10.906,0-15.078
	C428.82,74.85,422.071,74.85,417.899,79.006z"/>
<g>
</g>
<g>
</g>
<g>
</g>
<g>
</g>
<g>
</g>
<g>
</g>
<g>
</g>
<g>
</g>
<g>
</g>
<g>
</g>
<g>
</g>
<g>
</g>
<g>
</g>
<g>
</g>
<g>
</g>
</svg>
