<svg xmlns="http://www.w3.org/2000/svg" viewBox="0 0 100 125" x="0px" y="0px"><title>Peeler</title><path d="M48.81,78.51A1.19,1.19,0,1,1,50,79.7,1.19,1.19,0,0,1,48.81,78.51ZM53.66,49v2.73a1.47,1.47,0,0,1,1,1.4v25.6a4.69,4.69,0,0,1-9.37,0V53.14a1.47,1.47,0,0,1,1-1.4V49a6.13,6.13,0,0,1-2.47-4.92V22.71a6.13,6.13,0,0,1,12.27,0V44.09A6.13,6.13,0,0,1,53.66,49ZM46.8,44.09a3.2,3.2,0,1,0,6.39,0V22.71a3.2,3.2,0,0,0-6.39,0Zm4.94,10.52h-3.5V78.73a1.75,1.75,0,0,0,3.5,0Zm-2.47-4.38v1.44h1.44V50.23ZM50,45.36a1.47,1.47,0,0,0,1.47-1.47V22.7a1.47,1.47,0,1,0-2.94,0V43.89A1.47,1.47,0,0,0,50,45.36Z"/><text x="0" y="115" fill="#000000" font-size="5px" font-weight="bold" font-family="'Helvetica Neue', Helvetica, Arial-Unicode, Arial, Sans-serif">Created by Paul</text><text x="0" y="120" fill="#000000" font-size="5px" font-weight="bold" font-family="'Helvetica Neue', Helvetica, Arial-Unicode, Arial, Sans-serif">from the Noun Project</text></svg>